<svg xmlns="http://www.w3.org/2000/svg" width="1440" height="900"><path d="M738,505L808,621L839,500Z" fill="#69c1cb" stroke="#69c1cb" stroke-width="1.51"/><path d="M738,505L718,629L808,621Z" fill="#67bfcc" stroke="#67bfcc" stroke-width="1.51"/><path d="M950,615L948,520L839,500Z" fill="#5dbacf" stroke="#5dbacf" stroke-width="1.51"/><path d="M718,629L839,699L808,621Z" fill="#5eb6cc" stroke="#5eb6cc" stroke-width="1.51"/><path d="M950,615L839,500L808,621Z" fill="#5dbacf" stroke="#5dbacf" stroke-width="1.51"/><path d="M839,500L733,389L738,505Z" fill="#76c8c6" stroke="#76c8c6" stroke-width="1.51"/><path d="M948,520L850,393L839,500Z" fill="#6bc1cb" stroke="#6bc1cb" stroke-width="1.51"/><path d="M839,699L950,615L808,621Z" fill="#55b3cf" stroke="#55b3cf" stroke-width="1.51"/><path d="M850,393L733,389L839,500Z" fill="#78c8c6" stroke="#78c8c6" stroke-width="1.51"/><path d="M738,505L609,607L718,629Z" fill="#70c3c9" stroke="#70c3c9" stroke-width="1.51"/><path d="M594,525L609,607L738,505Z" fill="#79c7c6" stroke="#79c7c6" stroke-width="1.51"/><path d="M718,629L704,727L839,699Z" fill="#5eb4c8" stroke="#5eb4c8" stroke-width="1.51"/><path d="M613,695L704,727L718,629Z" fill="#67b8c6" stroke="#67b8c6" stroke-width="1.51"/><path d="M599,414L594,525L738,505Z" fill="#80ccc3" stroke="#80ccc3" stroke-width="1.51"/><path d="M609,607L613,695L718,629Z" fill="#6ebec7" stroke="#6ebec7" stroke-width="1.51"/><path d="M500,625L613,695L609,607Z" fill="#77c1c5" stroke="#77c1c5" stroke-width="1.51"/><path d="M733,389L599,414L738,505Z" fill="#81cdc3" stroke="#81cdc3" stroke-width="1.51"/><path d="M950,615L1020,613L948,520Z" fill="#52b3d1" stroke="#52b3d1" stroke-width="1.51"/><path d="M948,520L950,373L850,393Z" fill="#6ec2ca" stroke="#6ec2ca" stroke-width="1.51"/><path d="M940,740L1020,613L950,615Z" fill="#48abcf" stroke="#48abcf" stroke-width="1.51"/><path d="M1033,506L950,373L948,520Z" fill="#63bbcb" stroke="#63bbcb" stroke-width="1.51"/><path d="M832,267L739,272L733,389Z" fill="#8dd1bf" stroke="#8dd1bf" stroke-width="1.51"/><path d="M839,699L940,740L950,615Z" fill="#4caccd" stroke="#4caccd" stroke-width="1.51"/><path d="M936,808L940,740L839,699Z" fill="#47a4c9" stroke="#47a4c9" stroke-width="1.51"/><path d="M1020,613L1033,506L948,520Z" fill="#56b3ce" stroke="#56b3ce" stroke-width="1.51"/><path d="M704,727L830,846L839,699Z" fill="#54a9c5" stroke="#54a9c5" stroke-width="1.51"/><path d="M595,823L706,818L704,727Z" fill="#60abbf" stroke="#60abbf" stroke-width="1.51"/><path d="M832,267L733,389L850,393Z" fill="#84cdc3" stroke="#84cdc3" stroke-width="1.51"/><path d="M733,389L600,276L599,414Z" fill="#91d3be" stroke="#91d3be" stroke-width="1.51"/><path d="M922,266L832,267L850,393Z" fill="#86cbc3" stroke="#86cbc3" stroke-width="1.51"/><path d="M594,525L500,625L609,607Z" fill="#7dc7c6" stroke="#7dc7c6" stroke-width="1.51"/><path d="M599,414L507,501L594,525Z" fill="#88cfc1" stroke="#88cfc1" stroke-width="1.51"/><path d="M513,370L507,501L599,414Z" fill="#91d3bd" stroke="#91d3bd" stroke-width="1.51"/><path d="M940,740L1063,741L1020,613Z" fill="#42a3cb" stroke="#42a3cb" stroke-width="1.51"/><path d="M830,846L936,808L839,699Z" fill="#48a2c6" stroke="#48a2c6" stroke-width="1.51"/><path d="M706,818L830,846L704,727Z" fill="#56a7c1" stroke="#56a7c1" stroke-width="1.51"/><path d="M507,501L500,625L594,525Z" fill="#85cbc3" stroke="#85cbc3" stroke-width="1.51"/><path d="M613,695L595,823L704,727Z" fill="#67b1c1" stroke="#67b1c1" stroke-width="1.51"/><path d="M1045,300L922,266L950,373Z" fill="#7ec4c5" stroke="#7ec4c5" stroke-width="1.51"/><path d="M950,373L922,266L850,393Z" fill="#7dc7c5" stroke="#7dc7c5" stroke-width="1.51"/><path d="M1033,506L1067,388L950,373Z" fill="#69bbc7" stroke="#69bbc7" stroke-width="1.51"/><path d="M1153,489L1067,388L1033,506Z" fill="#5eb2c6" stroke="#5eb2c6" stroke-width="1.51"/><path d="M500,625L519,732L613,695Z" fill="#78bcc2" stroke="#78bcc2" stroke-width="1.51"/><path d="M936,808L1063,741L940,740Z" fill="#3d9dc7" stroke="#3d9dc7" stroke-width="1.51"/><path d="M1168,585L1153,489L1033,506Z" fill="#52abc7" stroke="#52abc7" stroke-width="1.51"/><path d="M600,276L513,370L599,414Z" fill="#99d6bb" stroke="#99d6bb" stroke-width="1.51"/><path d="M507,501L409,620L500,625Z" fill="#87cac3" stroke="#87cac3" stroke-width="1.51"/><path d="M706,818L733,914L830,846Z" fill="#529fbd" stroke="#529fbd" stroke-width="1.51"/><path d="M519,732L595,823L613,695Z" fill="#6fb3bf" stroke="#6fb3bf" stroke-width="1.51"/><path d="M739,272L600,276L733,389Z" fill="#93d4bd" stroke="#93d4bd" stroke-width="1.51"/><path d="M708,182L600,276L739,272Z" fill="#9cd8be" stroke="#9cd8be" stroke-width="1.51"/><path d="M1067,388L1045,300L950,373Z" fill="#74bec4" stroke="#74bec4" stroke-width="1.51"/><path d="M623,943L733,914L706,818Z" fill="#599eba" stroke="#599eba" stroke-width="1.51"/><path d="M830,846L928,954L936,808Z" fill="#4096c2" stroke="#4096c2" stroke-width="1.51"/><path d="M1067,388L1134,379L1045,300Z" fill="#71b8c2" stroke="#71b8c2" stroke-width="1.51"/><path d="M1168,585L1033,506L1020,613Z" fill="#4dabcb" stroke="#4dabcb" stroke-width="1.51"/><path d="M1063,741L1168,585L1020,613Z" fill="#41a3cb" stroke="#41a3cb" stroke-width="1.51"/><path d="M828,172L708,182L739,272Z" fill="#9ad6c2" stroke="#9ad6c2" stroke-width="1.51"/><path d="M828,172L739,272L832,267Z" fill="#94d2c2" stroke="#94d2c2" stroke-width="1.51"/><path d="M828,172L832,267L922,266Z" fill="#90cfc4" stroke="#90cfc4" stroke-width="1.51"/><path d="M954,186L828,172L922,266Z" fill="#90cec7" stroke="#90cec7" stroke-width="1.51"/><path d="M1153,489L1134,379L1067,388Z" fill="#64b2c2" stroke="#64b2c2" stroke-width="1.51"/><path d="M500,625L422,715L519,732Z" fill="#7ebec0" stroke="#7ebec0" stroke-width="1.51"/><path d="M519,732L523,839L595,823Z" fill="#6faebb" stroke="#6faebb" stroke-width="1.51"/><path d="M405,498L409,620L507,501Z" fill="#8ecfc3" stroke="#8ecfc3" stroke-width="1.51"/><path d="M405,383L405,498L507,501Z" fill="#96d5bf" stroke="#96d5bf" stroke-width="1.51"/><path d="M733,914L833,941L830,846Z" fill="#4c98bd" stroke="#4c98bd" stroke-width="1.51"/><path d="M936,808L1067,831L1063,741Z" fill="#3796c4" stroke="#3796c4" stroke-width="1.51"/><path d="M1063,741L1165,734L1168,585Z" fill="#3999c5" stroke="#3999c5" stroke-width="1.51"/><path d="M1031,957L1067,831L936,808Z" fill="#348fc1" stroke="#348fc1" stroke-width="1.51"/><path d="M417,817L523,839L519,732Z" fill="#76b1b9" stroke="#76b1b9" stroke-width="1.51"/><path d="M595,823L623,943L706,818Z" fill="#61a4ba" stroke="#61a4ba" stroke-width="1.51"/><path d="M1045,195L954,186L1045,300Z" fill="#87c4c5" stroke="#87c4c5" stroke-width="1.51"/><path d="M1045,300L954,186L922,266Z" fill="#86c7c6" stroke="#86c7c6" stroke-width="1.51"/><path d="M409,620L422,715L500,625Z" fill="#84c4c3" stroke="#84c4c3" stroke-width="1.51"/><path d="M513,370L405,383L507,501Z" fill="#99d6bc" stroke="#99d6bc" stroke-width="1.51"/><path d="M600,276L482,284L513,370Z" fill="#a2dab8" stroke="#a2dab8" stroke-width="1.51"/><path d="M489,168L482,284L600,276Z" fill="#aadeb9" stroke="#aadeb9" stroke-width="1.51"/><path d="M1067,831L1165,734L1063,741Z" fill="#3293c1" stroke="#3293c1" stroke-width="1.51"/><path d="M482,284L405,383L513,370Z" fill="#a3dbb9" stroke="#a3dbb9" stroke-width="1.51"/><path d="M833,941L928,954L830,846Z" fill="#4293be" stroke="#4293be" stroke-width="1.51"/><path d="M523,839L623,943L595,823Z" fill="#68a4b8" stroke="#68a4b8" stroke-width="1.51"/><path d="M701,1059L847,1049L833,941Z" fill="#4889af" stroke="#4889af" stroke-width="1.51"/><path d="M833,941L847,1049L928,954Z" fill="#408ab7" stroke="#408ab7" stroke-width="1.51"/><path d="M708,182L600,166L600,276Z" fill="#a4dbbe" stroke="#a4dbbe" stroke-width="1.51"/><path d="M702,98L600,166L708,182Z" fill="#a8dcc2" stroke="#a8dcc2" stroke-width="1.51"/><path d="M1136,192L1045,195L1045,300Z" fill="#84bfc2" stroke="#84bfc2" stroke-width="1.51"/><path d="M817,74L702,98L828,172Z" fill="#a3d8c8" stroke="#a3d8c8" stroke-width="1.51"/><path d="M1168,585L1243,585L1153,489Z" fill="#49a3c6" stroke="#49a3c6" stroke-width="1.51"/><path d="M1153,489L1279,381L1134,379Z" fill="#60acc0" stroke="#60acc0" stroke-width="1.51"/><path d="M1134,379L1158,284L1045,300Z" fill="#75b8bf" stroke="#75b8bf" stroke-width="1.51"/><path d="M1243,716L1243,585L1168,585Z" fill="#3b9ac6" stroke="#3b9ac6" stroke-width="1.51"/><path d="M1265,309L1158,284L1134,379Z" fill="#71b0bb" stroke="#71b0bb" stroke-width="1.51"/><path d="M523,839L491,911L623,943Z" fill="#6aa3b6" stroke="#6aa3b6" stroke-width="1.51"/><path d="M422,715L417,817L519,732Z" fill="#7bb6bd" stroke="#7bb6bd" stroke-width="1.51"/><path d="M287,719L417,817L422,715Z" fill="#83b9c0" stroke="#83b9c0" stroke-width="1.51"/><path d="M828,172L702,98L708,182Z" fill="#a2d9c5" stroke="#a2d9c5" stroke-width="1.51"/><path d="M817,74L828,172L923,81Z" fill="#9ed4cb" stroke="#9ed4cb" stroke-width="1.51"/><path d="M1067,831L1151,845L1165,734Z" fill="#2d8cbf" stroke="#2d8cbf" stroke-width="1.51"/><path d="M1165,734L1243,716L1168,585Z" fill="#3695c4" stroke="#3695c4" stroke-width="1.51"/><path d="M1155,940L1151,845L1067,831Z" fill="#2985bb" stroke="#2985bb" stroke-width="1.51"/><path d="M417,817L491,911L523,839Z" fill="#74aab7" stroke="#74aab7" stroke-width="1.51"/><path d="M928,954L1031,957L936,808Z" fill="#358ec0" stroke="#358ec0" stroke-width="1.51"/><path d="M482,284L404,282L405,383Z" fill="#aaddb9" stroke="#aaddb9" stroke-width="1.51"/><path d="M405,383L309,493L405,498Z" fill="#9cd7c1" stroke="#9cd7c1" stroke-width="1.51"/><path d="M489,168L404,282L482,284Z" fill="#b0e0b8" stroke="#b0e0b8" stroke-width="1.51"/><path d="M489,168L600,276L600,166Z" fill="#abdebc" stroke="#abdebc" stroke-width="1.51"/><path d="M923,81L828,172L954,186Z" fill="#97d0ca" stroke="#97d0ca" stroke-width="1.51"/><path d="M1245,820L1243,716L1165,734Z" fill="#2b8abe" stroke="#2b8abe" stroke-width="1.51"/><path d="M1243,585L1271,501L1153,489Z" fill="#4da2c3" stroke="#4da2c3" stroke-width="1.51"/><path d="M1359,526L1271,501L1243,585Z" fill="#489bc1" stroke="#489bc1" stroke-width="1.51"/><path d="M405,498L309,493L409,620Z" fill="#94d1c5" stroke="#94d1c5" stroke-width="1.51"/><path d="M409,620L307,629L422,715Z" fill="#89c5c6" stroke="#89c5c6" stroke-width="1.51"/><path d="M292,404L309,493L405,383Z" fill="#a3dac1" stroke="#a3dac1" stroke-width="1.51"/><path d="M502,61L489,168L600,166Z" fill="#b6e3be" stroke="#b6e3be" stroke-width="1.51"/><path d="M1020,83L923,81L954,186Z" fill="#96cdcd" stroke="#96cdcd" stroke-width="1.51"/><path d="M1020,83L954,186L1045,195Z" fill="#90c8c9" stroke="#90c8c9" stroke-width="1.51"/><path d="M309,493L307,629L409,620Z" fill="#93cfc8" stroke="#93cfc8" stroke-width="1.51"/><path d="M507,1030L624,1018L623,943Z" fill="#6294ac" stroke="#6294ac" stroke-width="1.51"/><path d="M623,943L624,1018L733,914Z" fill="#5a97b3" stroke="#5a97b3" stroke-width="1.51"/><path d="M928,954L954,1049L1031,957Z" fill="#3283b7" stroke="#3283b7" stroke-width="1.51"/><path d="M1158,284L1136,192L1045,300Z" fill="#7ebbbf" stroke="#7ebbbf" stroke-width="1.51"/><path d="M1243,168L1136,192L1158,284Z" fill="#80b6be" stroke="#80b6be" stroke-width="1.51"/><path d="M701,1059L833,941L733,914Z" fill="#4e91b4" stroke="#4e91b4" stroke-width="1.51"/><path d="M739,-51L610,78L702,98Z" fill="#afdfca" stroke="#afdfca" stroke-width="1.51"/><path d="M702,98L610,78L600,166Z" fill="#afdfc3" stroke="#afdfc3" stroke-width="1.51"/><path d="M624,1018L701,1059L733,914Z" fill="#5691af" stroke="#5691af" stroke-width="1.51"/><path d="M1271,501L1279,381L1153,489Z" fill="#57a6bf" stroke="#57a6bf" stroke-width="1.51"/><path d="M175,635L193,712L307,629Z" fill="#94c9cc" stroke="#94c9cc" stroke-width="1.51"/><path d="M404,282L292,404L405,383Z" fill="#aaddbd" stroke="#aaddbd" stroke-width="1.51"/><path d="M276,272L292,404L404,282Z" fill="#b2e1bc" stroke="#b2e1bc" stroke-width="1.51"/><path d="M923,81L804,-29L817,74Z" fill="#a3d6cf" stroke="#a3d6cf" stroke-width="1.51"/><path d="M1148,82L1020,83L1045,195Z" fill="#90c4c8" stroke="#90c4c8" stroke-width="1.51"/><path d="M847,1049L954,1049L928,954Z" fill="#3983b3" stroke="#3983b3" stroke-width="1.51"/><path d="M1237,922L1245,820L1151,845Z" fill="#227fb8" stroke="#227fb8" stroke-width="1.51"/><path d="M701,1059L954,1049L847,1049Z" fill="#4282ac" stroke="#4282ac" stroke-width="1.51"/><path d="M1377,614L1359,526L1243,585Z" fill="#4096c1" stroke="#4096c1" stroke-width="1.51"/><path d="M1151,845L1245,820L1165,734Z" fill="#2988bc" stroke="#2988bc" stroke-width="1.51"/><path d="M1155,940L1067,831L1031,957Z" fill="#2a84bb" stroke="#2a84bb" stroke-width="1.51"/><path d="M307,629L287,719L422,715Z" fill="#8ac2c5" stroke="#8ac2c5" stroke-width="1.51"/><path d="M390,1028L507,1030L491,911Z" fill="#6f99ab" stroke="#6f99ab" stroke-width="1.51"/><path d="M193,712L287,719L307,629Z" fill="#90c5c8" stroke="#90c5c8" stroke-width="1.51"/><path d="M1135,1046L1155,940L1031,957Z" fill="#2679b1" stroke="#2679b1" stroke-width="1.51"/><path d="M1279,381L1265,309L1134,379Z" fill="#6aacbb" stroke="#6aacbb" stroke-width="1.51"/><path d="M1136,192L1148,82L1045,195Z" fill="#8abfc4" stroke="#8abfc4" stroke-width="1.51"/><path d="M624,1018L507,1030L701,1059Z" fill="#5d8ea7" stroke="#5d8ea7" stroke-width="1.51"/><path d="M491,911L507,1030L623,943Z" fill="#689aaf" stroke="#689aaf" stroke-width="1.51"/><path d="M373,934L491,911L417,817Z" fill="#76a7b7" stroke="#76a7b7" stroke-width="1.51"/><path d="M954,1049L1055,1045L1031,957Z" fill="#2e7cb1" stroke="#2e7cb1" stroke-width="1.51"/><path d="M287,719L298,821L417,817Z" fill="#83b7bf" stroke="#83b7bf" stroke-width="1.51"/><path d="M298,821L373,934L417,817Z" fill="#7eadba" stroke="#7eadba" stroke-width="1.51"/><path d="M1271,501L1350,407L1279,381Z" fill="#5aa2bc" stroke="#5aa2bc" stroke-width="1.51"/><path d="M1279,381L1345,271L1265,309Z" fill="#6ea8b8" stroke="#6ea8b8" stroke-width="1.51"/><path d="M1377,614L1243,585L1243,716Z" fill="#3793c2" stroke="#3793c2" stroke-width="1.51"/><path d="M489,168L372,156L404,282Z" fill="#b8e3bc" stroke="#b8e3bc" stroke-width="1.51"/><path d="M610,78L502,61L600,166Z" fill="#b5e2c1" stroke="#b5e2c1" stroke-width="1.51"/><path d="M598,-54L502,61L610,78Z" fill="#b9e4c6" stroke="#b9e4c6" stroke-width="1.51"/><path d="M387,98L372,156L489,168Z" fill="#bfe6bf" stroke="#bfe6bf" stroke-width="1.51"/><path d="M1359,526L1350,407L1271,501Z" fill="#519dbd" stroke="#519dbd" stroke-width="1.51"/><path d="M1243,1018L1237,922L1155,940Z" fill="#1c73b0" stroke="#1c73b0" stroke-width="1.51"/><path d="M1155,940L1237,922L1151,845Z" fill="#217db7" stroke="#217db7" stroke-width="1.51"/><path d="M1373,698L1377,614L1243,716Z" fill="#308bbf" stroke="#308bbf" stroke-width="1.51"/><path d="M817,74L804,-29L702,98Z" fill="#a7dacc" stroke="#a7dacc" stroke-width="1.51"/><path d="M950,-50L804,-29L923,81Z" fill="#a2d5d3" stroke="#a2d5d3" stroke-width="1.51"/><path d="M372,156L276,272L404,282Z" fill="#b9e4bc" stroke="#b9e4bc" stroke-width="1.51"/><path d="M175,635L307,629L159,511Z" fill="#9ad1ce" stroke="#9ad1ce" stroke-width="1.51"/><path d="M1359,526L1450,416L1350,407Z" fill="#539ab9" stroke="#539ab9" stroke-width="1.51"/><path d="M1373,698L1243,716L1346,846Z" fill="#2682ba" stroke="#2682ba" stroke-width="1.51"/><path d="M1243,168L1158,284L1265,309Z" fill="#79b1ba" stroke="#79b1ba" stroke-width="1.51"/><path d="M1243,168L1148,82L1136,192Z" fill="#88b9c2" stroke="#88b9c2" stroke-width="1.51"/><path d="M1020,83L950,-50L923,81Z" fill="#9bcfd2" stroke="#9bcfd2" stroke-width="1.51"/><path d="M1345,271L1243,168L1265,309Z" fill="#78acb8" stroke="#78acb8" stroke-width="1.51"/><path d="M1346,846L1243,716L1245,820Z" fill="#2481b9" stroke="#2481b9" stroke-width="1.51"/><path d="M1374,1063L1135,1046L954,1049Z" fill="#206ca6" stroke="#206ca6" stroke-width="1.51"/><path d="M954,1049L1135,1046L1055,1045Z" fill="#2b75ab" stroke="#2b75ab" stroke-width="1.51"/><path d="M1055,1045L1135,1046L1031,957Z" fill="#2977ae" stroke="#2977ae" stroke-width="1.51"/><path d="M804,-29L739,-51L702,98Z" fill="#abddce" stroke="#abddce" stroke-width="1.51"/><path d="M810,-138L739,-51L804,-29Z" fill="#afddd4" stroke="#afddd4" stroke-width="1.51"/><path d="M372,156L295,167L276,272Z" fill="#c0e7bf" stroke="#c0e7bf" stroke-width="1.51"/><path d="M502,61L387,98L489,168Z" fill="#bee6bf" stroke="#bee6bf" stroke-width="1.51"/><path d="M379,-22L387,98L502,61Z" fill="#c5e8c5" stroke="#c5e8c5" stroke-width="1.51"/><path d="M287,719L193,712L298,821Z" fill="#8cbdc4" stroke="#8cbdc4" stroke-width="1.51"/><path d="M308,953L390,1028L373,934Z" fill="#789eb1" stroke="#789eb1" stroke-width="1.51"/><path d="M307,629L309,493L159,511Z" fill="#9dd4ca" stroke="#9dd4ca" stroke-width="1.51"/><path d="M1350,407L1345,271L1279,381Z" fill="#67a3b7" stroke="#67a3b7" stroke-width="1.51"/><path d="M1349,204L1345,271L1491,280Z" fill="#74a2b4" stroke="#74a2b4" stroke-width="1.51"/><path d="M159,511L309,493L171,400Z" fill="#a6dbc8" stroke="#a6dbc8" stroke-width="1.51"/><path d="M507,1030L301,1047L701,1059Z" fill="#6990a3" stroke="#6990a3" stroke-width="1.51"/><path d="M373,934L390,1028L491,911Z" fill="#749fb1" stroke="#749fb1" stroke-width="1.51"/><path d="M308,953L373,934L298,821Z" fill="#7ea9b9" stroke="#7ea9b9" stroke-width="1.51"/><path d="M1067,-59L950,-50L1020,83Z" fill="#9bccd3" stroke="#9bccd3" stroke-width="1.51"/><path d="M170,847L308,953L298,821Z" fill="#85aebd" stroke="#85aebd" stroke-width="1.51"/><path d="M171,400L309,493L292,404Z" fill="#a9dcc4" stroke="#a9dcc4" stroke-width="1.51"/><path d="M316,96L295,167L372,156Z" fill="#c6e9c2" stroke="#c6e9c2" stroke-width="1.51"/><path d="M1342,935L1346,846L1237,922Z" fill="#1873b2" stroke="#1873b2" stroke-width="1.51"/><path d="M1237,922L1346,846L1245,820Z" fill="#1e7ab5" stroke="#1e7ab5" stroke-width="1.51"/><path d="M171,400L292,404L184,296Z" fill="#b3e1c3" stroke="#b3e1c3" stroke-width="1.51"/><path d="M739,-51L598,-54L610,78Z" fill="#b5e2cb" stroke="#b5e2cb" stroke-width="1.51"/><path d="M621,-126L598,-54L739,-51Z" fill="#b9e3d0" stroke="#b9e3d0" stroke-width="1.51"/><path d="M184,296L292,404L276,272Z" fill="#b6e2bf" stroke="#b6e2bf" stroke-width="1.51"/><path d="M1148,82L1067,-59L1020,83Z" fill="#95c6cd" stroke="#95c6cd" stroke-width="1.51"/><path d="M1243,168L1236,89L1148,82Z" fill="#8ab8c2" stroke="#8ab8c2" stroke-width="1.51"/><path d="M1349,95L1236,89L1243,168Z" fill="#87b2bf" stroke="#87b2bf" stroke-width="1.51"/><path d="M1135,1046L1243,1018L1155,940Z" fill="#1e71ac" stroke="#1e71ac" stroke-width="1.51"/><path d="M1345,271L1349,204L1243,168Z" fill="#7babb9" stroke="#7babb9" stroke-width="1.51"/><path d="M1450,416L1345,271L1350,407Z" fill="#639eb6" stroke="#639eb6" stroke-width="1.51"/><path d="M203,164L184,296L276,272Z" fill="#c1e7c1" stroke="#c1e7c1" stroke-width="1.51"/><path d="M387,98L316,96L372,156Z" fill="#c5e9c2" stroke="#c5e9c2" stroke-width="1.51"/><path d="M379,-22L316,96L387,98Z" fill="#c9eac6" stroke="#c9eac6" stroke-width="1.51"/><path d="M203,164L276,272L295,167Z" fill="#c5e8c2" stroke="#c5e8c2" stroke-width="1.51"/><path d="M950,-50L936,-116L804,-29Z" fill="#a6d7d8" stroke="#a6d7d8" stroke-width="1.51"/><path d="M1163,-52L1067,-59L1148,82Z" fill="#95c2ce" stroke="#95c2ce" stroke-width="1.51"/><path d="M1243,1018L1342,935L1237,922Z" fill="#176fad" stroke="#176fad" stroke-width="1.51"/><path d="M1481,595L1377,614L1483,702Z" fill="#3186ba" stroke="#3186ba" stroke-width="1.51"/><path d="M1470,528L1377,614L1481,595Z" fill="#3c8bbb" stroke="#3c8bbb" stroke-width="1.51"/><path d="M1470,528L1359,526L1377,614Z" fill="#4190bd" stroke="#4190bd" stroke-width="1.51"/><path d="M1470,528L1450,416L1359,526Z" fill="#4c93b8" stroke="#4c93b8" stroke-width="1.51"/><path d="M598,-54L501,-58L502,61Z" fill="#c0e6c8" stroke="#c0e6c8" stroke-width="1.51"/><path d="M504,-142L501,-58L598,-54Z" fill="#c4e8cd" stroke="#c4e8cd" stroke-width="1.51"/><path d="M1377,614L1373,698L1483,702Z" fill="#2d85bb" stroke="#2d85bb" stroke-width="1.51"/><path d="M1067,-59L936,-116L950,-50Z" fill="#a1d0d8" stroke="#a1d0d8" stroke-width="1.51"/><path d="M308,953L301,1047L390,1028Z" fill="#789aad" stroke="#789aad" stroke-width="1.51"/><path d="M193,712L170,847L298,821Z" fill="#8bb8c4" stroke="#8bb8c4" stroke-width="1.51"/><path d="M92,809L170,847L193,712Z" fill="#8ebac7" stroke="#8ebac7" stroke-width="1.51"/><path d="M61,723L193,712L175,635Z" fill="#96c7ce" stroke="#96c7ce" stroke-width="1.51"/><path d="M936,-116L810,-138L804,-29Z" fill="#acdad8" stroke="#acdad8" stroke-width="1.51"/><path d="M1483,702L1373,698L1495,818Z" fill="#237ab2" stroke="#237ab2" stroke-width="1.51"/><path d="M195,1036L301,1047L308,953Z" fill="#7d9caf" stroke="#7d9caf" stroke-width="1.51"/><path d="M390,1028L301,1047L507,1030Z" fill="#7295a7" stroke="#7295a7" stroke-width="1.51"/><path d="M701,-148L621,-126L739,-51Z" fill="#b8e3d3" stroke="#b8e3d3" stroke-width="1.51"/><path d="M159,511L55,615L175,635Z" fill="#9fd3d2" stroke="#9fd3d2" stroke-width="1.51"/><path d="M171,400L93,484L159,511Z" fill="#aadccb" stroke="#aadccb" stroke-width="1.51"/><path d="M81,371L93,484L171,400Z" fill="#b1e0ca" stroke="#b1e0ca" stroke-width="1.51"/><path d="M184,296L81,371L171,400Z" fill="#b7e3c5" stroke="#b7e3c5" stroke-width="1.51"/><path d="M316,96L203,164L295,167Z" fill="#caeac4" stroke="#caeac4" stroke-width="1.51"/><path d="M159,56L203,164L316,96Z" fill="#cfecc9" stroke="#cfecc9" stroke-width="1.51"/><path d="M810,-138L701,-148L739,-51Z" fill="#b3e0d5" stroke="#b3e0d5" stroke-width="1.51"/><path d="M501,-58L379,-22L502,61Z" fill="#c5e9c7" stroke="#c5e9c7" stroke-width="1.51"/><path d="M387,-118L379,-22L501,-58Z" fill="#ccebcc" stroke="#ccebcc" stroke-width="1.51"/><path d="M1495,818L1373,698L1346,846Z" fill="#1d78b4" stroke="#1d78b4" stroke-width="1.51"/><path d="M1243,-35L1163,-52L1148,82Z" fill="#91bccb" stroke="#91bccb" stroke-width="1.51"/><path d="M1067,-59L1050,-153L936,-116Z" fill="#a2ced9" stroke="#a2ced9" stroke-width="1.51"/><path d="M1243,-35L1148,82L1236,89Z" fill="#8eb9c6" stroke="#8eb9c6" stroke-width="1.51"/><path d="M1465,161L1349,95L1349,204Z" fill="#7fa7b9" stroke="#7fa7b9" stroke-width="1.51"/><path d="M1349,204L1349,95L1243,168Z" fill="#82adbc" stroke="#82adbc" stroke-width="1.51"/><path d="M170,847L157,916L308,953Z" fill="#86abbe" stroke="#86abbe" stroke-width="1.51"/><path d="M92,809L157,916L170,847Z" fill="#8bb2c3" stroke="#8bb2c3" stroke-width="1.51"/><path d="M65,284L81,371L184,296Z" fill="#bee5c6" stroke="#bee5c6" stroke-width="1.51"/><path d="M-23,589L55,615L-36,525Z" fill="#a6d6d7" stroke="#a6d6d7" stroke-width="1.51"/><path d="M93,484L55,615L159,511Z" fill="#a5d7d1" stroke="#a5d7d1" stroke-width="1.51"/><path d="M1349,95L1243,-35L1236,89Z" fill="#8bb3c4" stroke="#8bb3c4" stroke-width="1.51"/><path d="M1159,-124L1050,-153L1067,-59Z" fill="#9ec7d6" stroke="#9ec7d6" stroke-width="1.51"/><path d="M61,723L92,809L193,712Z" fill="#92c0cb" stroke="#92c0cb" stroke-width="1.51"/><path d="M55,615L61,723L175,635Z" fill="#9accd2" stroke="#9accd2" stroke-width="1.51"/><path d="M1450,416L1491,280L1345,271Z" fill="#699cb1" stroke="#699cb1" stroke-width="1.51"/><path d="M1570,384L1491,280L1450,416Z" fill="#6193ab" stroke="#6193ab" stroke-width="1.51"/><path d="M1584,503L1450,416L1470,528Z" fill="#4c8db0" stroke="#4c8db0" stroke-width="1.51"/><path d="M1584,503L1470,528L1481,595Z" fill="#4288b3" stroke="#4288b3" stroke-width="1.51"/><path d="M621,-126L504,-142L598,-54Z" fill="#c3e7d0" stroke="#c3e7d0" stroke-width="1.51"/><path d="M701,-148L504,-142L621,-126Z" fill="#c1e7d3" stroke="#c1e7d3" stroke-width="1.51"/><path d="M936,-116L1050,-153L810,-138Z" fill="#a9d7dd" stroke="#a9d7dd" stroke-width="1.51"/><path d="M810,-138L1050,-153L701,-148Z" fill="#afdbdc" stroke="#afdbdc" stroke-width="1.51"/><path d="M1159,-124L1067,-59L1163,-52Z" fill="#99c4d2" stroke="#99c4d2" stroke-width="1.51"/><path d="M1483,702L1559,695L1481,595Z" fill="#2e7db2" stroke="#2e7db2" stroke-width="1.51"/><path d="M1469,911L1495,818L1346,846Z" fill="#156dad" stroke="#156dad" stroke-width="1.51"/><path d="M1469,911L1346,846L1342,935Z" fill="#116dae" stroke="#116dae" stroke-width="1.51"/><path d="M1460,1020L1469,911L1342,935Z" fill="#0963a7" stroke="#0963a7" stroke-width="1.51"/><path d="M88,1020L195,1036L157,916Z" fill="#83a0b7" stroke="#83a0b7" stroke-width="1.51"/><path d="M157,916L195,1036L308,953Z" fill="#82a3b7" stroke="#82a3b7" stroke-width="1.51"/><path d="M387,-118L288,-29L379,-22Z" fill="#d1edce" stroke="#d1edce" stroke-width="1.51"/><path d="M379,-22L288,-29L316,96Z" fill="#ceecca" stroke="#ceecca" stroke-width="1.51"/><path d="M92,175L65,284L184,296Z" fill="#c5e8c6" stroke="#c5e8c6" stroke-width="1.51"/><path d="M1243,-35L1159,-124L1163,-52Z" fill="#95becf" stroke="#95becf" stroke-width="1.51"/><path d="M92,175L184,296L203,164Z" fill="#c7eac6" stroke="#c7eac6" stroke-width="1.51"/><path d="M-36,525L55,615L93,484Z" fill="#a7d8d4" stroke="#a7d8d4" stroke-width="1.51"/><path d="M1243,1018L1374,1063L1342,935Z" fill="#1365a5" stroke="#1365a5" stroke-width="1.51"/><path d="M1135,1046L1374,1063L1243,1018Z" fill="#1966a3" stroke="#1966a3" stroke-width="1.51"/><path d="M701,1059L1374,1063L954,1049Z" fill="#2e77ac" stroke="#2e77ac" stroke-width="1.51"/><path d="M1491,280L1465,161L1349,204Z" fill="#77a0b2" stroke="#77a0b2" stroke-width="1.51"/><path d="M1349,95L1385,-10L1243,-35Z" fill="#8bb0c4" stroke="#8bb0c4" stroke-width="1.51"/><path d="M1243,-35L1282,-151L1159,-124Z" fill="#97bcd0" stroke="#97bcd0" stroke-width="1.51"/><path d="M1597,836L1559,695L1495,818Z" fill="#1d6ba6" stroke="#1d6ba6" stroke-width="1.51"/><path d="M1495,818L1559,695L1483,702Z" fill="#2474ac" stroke="#2474ac" stroke-width="1.51"/><path d="M504,-142L387,-118L501,-58Z" fill="#cbebcd" stroke="#cbebcd" stroke-width="1.51"/><path d="M159,56L92,175L203,164Z" fill="#d1edca" stroke="#d1edca" stroke-width="1.51"/><path d="M1601,618L1584,503L1481,595Z" fill="#3b81af" stroke="#3b81af" stroke-width="1.51"/><path d="M1491,280L1568,156L1465,161Z" fill="#7699ac" stroke="#7699ac" stroke-width="1.51"/><path d="M1584,503L1570,384L1450,416Z" fill="#538dac" stroke="#538dac" stroke-width="1.51"/><path d="M198,-14L316,96L288,-29Z" fill="#d3eecc" stroke="#d3eecc" stroke-width="1.51"/><path d="M198,-14L159,56L316,96Z" fill="#d3eecc" stroke="#d3eecc" stroke-width="1.51"/><path d="M1559,89L1451,86L1465,161Z" fill="#809eb2" stroke="#809eb2" stroke-width="1.51"/><path d="M1465,161L1451,86L1349,95Z" fill="#82a5b9" stroke="#82a5b9" stroke-width="1.51"/><path d="M1584,503L1601,310L1570,384Z" fill="#5889a5" stroke="#5889a5" stroke-width="1.51"/><path d="M1559,695L1601,618L1481,595Z" fill="#307cb0" stroke="#307cb0" stroke-width="1.51"/><path d="M1597,836L1601,618L1559,695Z" fill="#266fa7" stroke="#266fa7" stroke-width="1.51"/><path d="M55,615L-22,701L61,723Z" fill="#9bcad3" stroke="#9bcad3" stroke-width="1.51"/><path d="M61,723L-27,805L92,809Z" fill="#93bdcc" stroke="#93bdcc" stroke-width="1.51"/><path d="M92,809L55,945L157,916Z" fill="#8baec4" stroke="#8baec4" stroke-width="1.51"/><path d="M-36,525L93,484L-27,419Z" fill="#afded2" stroke="#afded2" stroke-width="1.51"/><path d="M93,484L81,371L-27,419Z" fill="#b3e1ce" stroke="#b3e1ce" stroke-width="1.51"/><path d="M1374,1063L1460,1020L1342,935Z" fill="#0b60a2" stroke="#0b60a2" stroke-width="1.51"/><path d="M1565,943L1597,836L1495,818Z" fill="#1462a2" stroke="#1462a2" stroke-width="1.51"/><path d="M1451,86L1385,-10L1349,95Z" fill="#86a9bf" stroke="#86a9bf" stroke-width="1.51"/><path d="M267,-142L198,-14L288,-29Z" fill="#d9f0d2" stroke="#d9f0d2" stroke-width="1.51"/><path d="M159,56L53,74L92,175Z" fill="#d5efcf" stroke="#d5efcf" stroke-width="1.51"/><path d="M-23,589L-22,701L55,615Z" fill="#a0d0d7" stroke="#a0d0d7" stroke-width="1.51"/><path d="M-27,419L81,371L65,284Z" fill="#bce5cb" stroke="#bce5cb" stroke-width="1.51"/><path d="M-23,589L-143,634L-22,701Z" fill="#a3d1da" stroke="#a3d1da" stroke-width="1.51"/><path d="M-53,263L-27,419L65,284Z" fill="#c2e7cb" stroke="#c2e7cb" stroke-width="1.51"/><path d="M-27,805L55,945L92,809Z" fill="#8fb4c9" stroke="#8fb4c9" stroke-width="1.51"/><path d="M55,945L88,1020L157,916Z" fill="#87a5be" stroke="#87a5be" stroke-width="1.51"/><path d="M1570,384L1601,310L1491,280Z" fill="#6590a5" stroke="#6590a5" stroke-width="1.51"/><path d="M1601,618L1601,310L1584,503Z" fill="#4b84a8" stroke="#4b84a8" stroke-width="1.51"/><path d="M1565,943L1495,818L1469,911Z" fill="#1163a4" stroke="#1163a4" stroke-width="1.51"/><path d="M-22,701L-27,805L61,723Z" fill="#97c2d1" stroke="#97c2d1" stroke-width="1.51"/><path d="M55,945L-14,1018L88,1020Z" fill="#87a1bb" stroke="#87a1bb" stroke-width="1.51"/><path d="M-54,940L-27,805L-143,837Z" fill="#94b5cd" stroke="#94b5cd" stroke-width="1.51"/><path d="M1361,-127L1282,-151L1243,-35Z" fill="#94b6cd" stroke="#94b6cd" stroke-width="1.51"/><path d="M1159,-124L1282,-151L1050,-153Z" fill="#9cc2d4" stroke="#9cc2d4" stroke-width="1.51"/><path d="M1460,1020L1565,943L1469,911Z" fill="#0a5c9f" stroke="#0a5c9f" stroke-width="1.51"/><path d="M387,-118L267,-142L288,-29Z" fill="#d7f0d2" stroke="#d7f0d2" stroke-width="1.51"/><path d="M58,-15L53,74L159,56Z" fill="#d9f0d3" stroke="#d9f0d3" stroke-width="1.51"/><path d="M504,-142L267,-142L387,-118Z" fill="#d4efd2" stroke="#d4efd2" stroke-width="1.51"/><path d="M164,-151L267,-142L504,-142Z" fill="#dbf1d6" stroke="#dbf1d6" stroke-width="1.51"/><path d="M164,-151L504,-142L701,-148Z" fill="#cfecd0" stroke="#cfecd0" stroke-width="1.51"/><path d="M1601,310L1568,156L1491,280Z" fill="#6f94a6" stroke="#6f94a6" stroke-width="1.51"/><path d="M1451,86L1462,-47L1385,-10Z" fill="#88a7bf" stroke="#88a7bf" stroke-width="1.51"/><path d="M1385,-10L1361,-127L1243,-35Z" fill="#8fb1c9" stroke="#8fb1c9" stroke-width="1.51"/><path d="M-33,207L-53,263L65,284Z" fill="#cbebcc" stroke="#cbebcc" stroke-width="1.51"/><path d="M58,-15L159,56L198,-14Z" fill="#d9f0d3" stroke="#d9f0d3" stroke-width="1.51"/><path d="M1462,-47L1361,-127L1385,-10Z" fill="#8dabc6" stroke="#8dabc6" stroke-width="1.51"/><path d="M-164,742L-27,805L-22,701Z" fill="#9bc3d3" stroke="#9bc3d3" stroke-width="1.51"/><path d="M-157,528L-23,589L-36,525Z" fill="#acdad9" stroke="#acdad9" stroke-width="1.51"/><path d="M-33,207L65,284L92,175Z" fill="#ccebcb" stroke="#ccebcb" stroke-width="1.51"/><path d="M53,74L-33,207L92,175Z" fill="#d4eecf" stroke="#d4eecf" stroke-width="1.51"/><path d="M1568,156L1559,89L1465,161Z" fill="#7c9aad" stroke="#7c9aad" stroke-width="1.51"/><path d="M1585,-29L1559,89L1568,156Z" fill="#7f98ad" stroke="#7f98ad" stroke-width="1.51"/><path d="M1559,89L1462,-47L1451,86Z" fill="#84a0b7" stroke="#84a0b7" stroke-width="1.51"/><path d="M53,74L-37,68L-33,207Z" fill="#d9f1d3" stroke="#d9f1d3" stroke-width="1.51"/><path d="M164,-151L58,-15L198,-14Z" fill="#def2d7" stroke="#def2d7" stroke-width="1.51"/><path d="M-27,805L-54,940L55,945Z" fill="#8fb0c8" stroke="#8fb0c8" stroke-width="1.51"/><path d="M-143,634L-23,589L-157,528Z" fill="#aad8dd" stroke="#aad8dd" stroke-width="1.51"/><path d="M-54,940L-14,1018L55,945Z" fill="#8ba6c2" stroke="#8ba6c2" stroke-width="1.51"/><path d="M88,1020L-149,1054L195,1036Z" fill="#859cb6" stroke="#859cb6" stroke-width="1.51"/><path d="M195,1036L-149,1054L301,1047Z" fill="#8299b1" stroke="#8299b1" stroke-width="1.51"/><path d="M-141,421L-36,525L-27,419Z" fill="#b5e1d4" stroke="#b5e1d4" stroke-width="1.51"/><path d="M1565,943L1594,1042L1597,836Z" fill="#09579a" stroke="#09579a" stroke-width="1.51"/><path d="M1597,836L1594,1042L1601,618Z" fill="#18619f" stroke="#18619f" stroke-width="1.51"/><path d="M1460,1020L1594,1042L1565,943Z" fill="#0a5395" stroke="#0a5395" stroke-width="1.51"/><path d="M1374,1063L1594,1042L1460,1020Z" fill="#095496" stroke="#095496" stroke-width="1.51"/><path d="M-53,263L-141,421L-27,419Z" fill="#c0e6d0" stroke="#c0e6d0" stroke-width="1.51"/><path d="M-163,263L-141,421L-53,263Z" fill="#c9ead0" stroke="#c9ead0" stroke-width="1.51"/><path d="M-163,263L-53,263L-145,156Z" fill="#d3eed2" stroke="#d3eed2" stroke-width="1.51"/><path d="M-9,-163L164,-151L701,-148Z" fill="#ddf2d7" stroke="#ddf2d7" stroke-width="1.51"/><path d="M267,-142L164,-151L198,-14Z" fill="#def2d7" stroke="#def2d7" stroke-width="1.51"/><path d="M-141,421L-157,528L-36,525Z" fill="#b3dfd8" stroke="#b3dfd8" stroke-width="1.51"/><path d="M-11,-59L-37,68L58,-15Z" fill="#e0f3da" stroke="#e0f3da" stroke-width="1.51"/><path d="M58,-15L-37,68L53,74Z" fill="#dcf1d6" stroke="#dcf1d6" stroke-width="1.51"/><path d="M1462,-47L1480,-119L1361,-127Z" fill="#8ea9c5" stroke="#8ea9c5" stroke-width="1.51"/><path d="M1361,-127L1587,-146L1282,-151Z" fill="#92adcb" stroke="#92adcb" stroke-width="1.51"/><path d="M1585,-29L1480,-119L1462,-47Z" fill="#89a1bc" stroke="#89a1bc" stroke-width="1.51"/><path d="M-143,634L-164,742L-22,701Z" fill="#a1cbd8" stroke="#a1cbd8" stroke-width="1.51"/><path d="M-54,940L-149,1054L-14,1018Z" fill="#8ca2bf" stroke="#8ca2bf" stroke-width="1.51"/><path d="M-157,528L-164,742L-143,634Z" fill="#a8d3df" stroke="#a8d3df" stroke-width="1.51"/><path d="M-164,742L-143,837L-27,805Z" fill="#9abed2" stroke="#9abed2" stroke-width="1.51"/><path d="M1601,310L1585,-29L1568,156Z" fill="#7994a8" stroke="#7994a8" stroke-width="1.51"/><path d="M1559,89L1585,-29L1462,-47Z" fill="#849db5" stroke="#849db5" stroke-width="1.51"/><path d="M-157,528L-163,263L-164,742Z" fill="#b4dedb" stroke="#b4dedb" stroke-width="1.51"/><path d="M-141,421L-163,263L-157,528Z" fill="#bfe6d6" stroke="#bfe6d6" stroke-width="1.51"/><path d="M-145,156L-53,263L-33,207Z" fill="#d3eed1" stroke="#d3eed1" stroke-width="1.51"/><path d="M-37,68L-145,156L-33,207Z" fill="#daf1d4" stroke="#daf1d4" stroke-width="1.51"/><path d="M61,-146L-11,-59L58,-15Z" fill="#e3f4dd" stroke="#e3f4dd" stroke-width="1.51"/><path d="M164,-151L61,-146L58,-15Z" fill="#e3f4dc" stroke="#e3f4dc" stroke-width="1.51"/><path d="M-128,73L-145,156L-37,68Z" fill="#dff3d8" stroke="#dff3d8" stroke-width="1.51"/><path d="M-164,742L-162,955L-143,837Z" fill="#99b9d2" stroke="#99b9d2" stroke-width="1.51"/><path d="M-143,837L-162,955L-54,940Z" fill="#94b0cd" stroke="#94b0cd" stroke-width="1.51"/><path d="M-126,-26L-128,73L-37,68Z" fill="#e2f4dc" stroke="#e2f4dc" stroke-width="1.51"/><path d="M-126,-26L-37,68L-11,-59Z" fill="#e3f5dd" stroke="#e3f5dd" stroke-width="1.51"/><path d="M1585,-29L1587,-146L1480,-119Z" fill="#8a9eba" stroke="#8a9eba" stroke-width="1.51"/><path d="M1480,-119L1587,-146L1361,-127Z" fill="#8fa5c3" stroke="#8fa5c3" stroke-width="1.51"/><path d="M1601,310L1587,-146L1585,-29Z" fill="#7f96ad" stroke="#7f96ad" stroke-width="1.51"/><path d="M-162,955L-149,1054L-54,940Z" fill="#90a6c4" stroke="#90a6c4" stroke-width="1.51"/><path d="M-14,1018L-149,1054L88,1020Z" fill="#899dba" stroke="#899dba" stroke-width="1.51"/><path d="M301,1047L-149,1054L701,1059Z" fill="#7a95a9" stroke="#7a95a9" stroke-width="1.51"/><path d="M701,1059L-149,1054L1374,1063Z" fill="#598aa5" stroke="#598aa5" stroke-width="1.51"/><path d="M61,-146L-9,-163L-11,-59Z" fill="#e8f6e2" stroke="#e8f6e2" stroke-width="1.51"/><path d="M164,-151L-9,-163L61,-146Z" fill="#e7f6e1" stroke="#e7f6e1" stroke-width="1.51"/><path d="M1050,-153L-9,-163L701,-148Z" fill="#c5e8d3" stroke="#c5e8d3" stroke-width="1.51"/><path d="M1282,-151L-9,-163L1050,-153Z" fill="#b5e0d9" stroke="#b5e0d9" stroke-width="1.51"/><path d="M-131,-158L-126,-26L-11,-59Z" fill="#eaf7e3" stroke="#eaf7e3" stroke-width="1.51"/><path d="M-128,73L-126,-26L-145,156Z" fill="#e3f4dc" stroke="#e3f4dc" stroke-width="1.51"/><path d="M-145,156L-131,-158L-163,263Z" fill="#e2f4db" stroke="#e2f4db" stroke-width="1.51"/><path d="M-9,-163L-131,-158L-11,-59Z" fill="#ebf7e5" stroke="#ebf7e5" stroke-width="1.51"/><path d="M-126,-26L-131,-158L-145,156Z" fill="#e7f6e1" stroke="#e7f6e1" stroke-width="1.51"/></svg>